<svg id="bing-11" xmlns="http://www.w3.org/2000/svg" width="263.075" height="106.286" viewBox="0 0 263.075 106.286">
  <path id="path2998" d="M0,0,21.251,7.438V82.16L51.127,64.878,36.439,57.972l-9.25-23.032L74.316,51.5V75.566L21.251,106.255,0,94.473Z" fill="#e54f4f"/>
  <path id="path6" d="M375.439,102.514a16.747,16.747,0,0,0-10.313-4.906v-.125a15.858,15.858,0,0,0,8.094-5.719,15.449,15.449,0,0,0,2.938-9.469,13.106,13.106,0,0,0-4.844-10.532c-3.25-2.719-7.594-4.063-13.157-4.063H340v63.816h18.595c5.969,0,10.938-1.688,14.844-5.063a16.713,16.713,0,0,0,5.875-13.251A15.372,15.372,0,0,0,375.439,102.514Zm-28-27.97h8.594q12.235,0,12.219,9.282A10.455,10.455,0,0,1,364.72,92.2c-2.344,1.969-5.532,2.938-9.688,2.938h-7.657V74.544ZM367.814,121.7q-3.61,3.094-10.219,3.094H347.438v-23h8.594c10.282,0,15.376,3.75,15.376,11.313a10.526,10.526,0,0,1-3.594,8.594Z" transform="translate(-233.745 -46.543)" fill="#e54f4f"/>
  <path id="path8" d="M497.957,73a4.592,4.592,0,0,1-4.656-4.719,4.763,4.763,0,0,1,1.344-3.438,4.408,4.408,0,0,1,3.313-1.344,4.867,4.867,0,0,1,3.438,1.344,4.643,4.643,0,0,1,1.406,3.438,4.534,4.534,0,0,1-1.406,3.313A5.04,5.04,0,0,1,497.957,73Z" transform="translate(-339.136 -43.655)" fill="#e54f4f"/>
  <path id="rect10" d="M496.2,127.5h7.282v45.221H496.2Z" transform="translate(-341.13 -87.654)" fill="#e54f4f"/>
  <path id="path3013" d="M595.633,170.384h-7.282V144.726c0-9.688-3.25-14.5-10.313-14.5a11.367,11.367,0,0,0-9.063,4.125,15.347,15.347,0,0,0-3.594,10.376v25.658H558.1V125.163h7.282v7.407h.156c3.438-5.75,8.375-8.469,14.688-8.469,5,0,8.813,1.625,11.407,4.844,2.656,3.219,3.969,7.875,3.969,13.969Z" transform="translate(-383.685 -85.317)" fill="#e54f4f"/>
  <path id="path13" d="M743.045,125.094v6.313h-.156c-3-4.938-7.188-7.407-13.313-7.407q-9.7,0-15.282,6.844c-3.75,4.563-5.594,10.719-5.594,18.47,0,6.844,1.75,12.282,5.157,16.313,3.469,4.063,8.032,5.75,13.688,5.75,6.969,0,11.844-2.813,15.313-8.657h.156v4.938c0,11.907-5.594,17.782-16.845,17.782a24.122,24.122,0,0,1-12.5-3.313l-1.906,6.25a31.282,31.282,0,0,0,14.5,3.156q24.048,0,24.032-25.095V125.094Zm0,24.626a16.482,16.482,0,0,1-3.844,11.188,12.209,12.209,0,0,1-9.782,4.344,11.872,11.872,0,0,1-9.719-4.563c-2.438-3.031-3.719-6.75-3.719-11.813,0-5.938,1.25-10.5,3.813-13.751a12.772,12.772,0,0,1,10.594-4.906,11.7,11.7,0,0,1,8.907,3.844,13.168,13.168,0,0,1,3.688,9.282v6.313Z" transform="translate(-487.22 -85.248)" fill="#e54f4f"/>
</svg>
