<svg xmlns="http://www.w3.org/2000/svg" width="293.665" height="95.857" viewBox="0 0 293.665 95.857">
  <g id="google-2015" transform="translate(0.003)">
    <path id="Path_1" data-name="Path 1" d="M36.164,0h2.611a35.635,35.635,0,0,1,24.39,10.3c-2.365,2.414-4.779,4.73-7.1,7.144A26.65,26.65,0,0,0,11.331,33.505a27.429,27.429,0,0,0,5.962,21.187,26.372,26.372,0,0,0,19.216,9.46c6.9.394,14.092-1.725,19.118-6.553,3.942-3.4,5.765-8.573,6.356-13.6-8.179,0-16.358.049-24.538,0V33.85H71.887c1.774,10.889-.788,23.158-9.066,30.943A33.675,33.675,0,0,1,41.88,74.2a38.459,38.459,0,0,1-22.025-4.336A37.921,37.921,0,0,1,2.265,49.814a36.329,36.329,0,0,1-.246-24.587A37.512,37.512,0,0,1,15.569,7.243,38.682,38.682,0,0,1,36.164,0Z" transform="translate(0)" fill="#3780ff"/>
    <path id="Path_2" data-name="Path 2" d="M474.4,5.2h10.544V75.561c-3.5,0-7.046.049-10.544-.049.049-23.4,0-46.858,0-70.312Z" transform="translate(-240.653 -2.638)" fill="#38b137"/>
    <path id="Path_3" data-name="Path 3" d="M173.606,54.25a24.759,24.759,0,0,1,18.921,4.04,23.143,23.143,0,0,1,9.312,14.782,23.826,23.826,0,0,1-25.03,28.578,23.978,23.978,0,0,1-17.935-9.608,24.63,24.63,0,0,1-3.252-22.37A23.382,23.382,0,0,1,173.606,54.25m1.478,9.362a13.247,13.247,0,0,0-6.9,4.385c-4.779,5.716-4.484,15.028.788,20.349A13.12,13.12,0,0,0,180.7,91.993a13.27,13.27,0,0,0,9.165-6.75c3.252-5.863,2.316-13.944-2.661-18.526A13.294,13.294,0,0,0,175.085,63.612Z" transform="translate(-78.266 -27.298)" fill="#fa3913"/>
    <path id="Path_4" data-name="Path 4" d="M279.622,54.246A24.507,24.507,0,0,1,300.76,60.11c9.066,8.13,10.052,23.355,2.316,32.717a24.371,24.371,0,0,1-38.186-.788,24.868,24.868,0,0,1-3.1-22.862,23.4,23.4,0,0,1,17.837-14.93m1.478,9.362a13.473,13.473,0,0,0-6.9,4.336,15.651,15.651,0,0,0,.542,20.152,13.184,13.184,0,0,0,12.022,3.893,13.516,13.516,0,0,0,9.165-6.75c3.2-5.913,2.267-13.993-2.759-18.576A13.208,13.208,0,0,0,281.1,63.608Z" transform="translate(-132.053 -27.294)" fill="#fcbd06"/>
    <path id="Path_5" data-name="Path 5" d="M377.51,57.1c5.666-3.548,13.2-4.533,19.315-1.478a18.406,18.406,0,0,1,5.026,3.7c.049-1.33,0-2.71.049-4.09,3.3.049,6.6,0,9.953.049V98.738c-.049,6.553-1.725,13.5-6.455,18.28-5.174,5.272-13.106,6.9-20.251,5.814A22.913,22.913,0,0,1,367.9,109.085c2.956-1.429,6.06-2.562,9.115-3.893,1.725,4.04,5.223,7.489,9.608,8.278s9.46-.3,12.318-3.942c3.055-3.745,3.055-8.869,2.907-13.451A17.491,17.491,0,0,1,393.819,101c-6.849,1.922-14.388-.443-19.66-5.075A24.255,24.255,0,0,1,377.51,57.1m10.2,6.307a12.963,12.963,0,0,0-7.736,4.484,15.719,15.719,0,0,0,.049,19.758,12.892,12.892,0,0,0,11.086,4.533,12.52,12.52,0,0,0,9.411-6.258A16.631,16.631,0,0,0,398.845,67.3a12.125,12.125,0,0,0-11.136-3.893Z" transform="translate(-185.645 -27.293)" fill="#3780ff"/>
    <path id="Path_6" data-name="Path 6" d="M513.809,59.584A22.238,22.238,0,0,1,536.425,55.1c7.194,2.71,11.776,9.559,14.092,16.6-10.692,4.435-21.335,8.82-32.027,13.254a12.706,12.706,0,0,0,6.8,6.405A13.8,13.8,0,0,0,538.3,89.492a20.977,20.977,0,0,0,3.646-3.893c2.71,1.823,5.42,3.6,8.13,5.42a24.124,24.124,0,0,1-38.087,2.414c-8.179-9.46-7.391-25.326,1.823-33.85m5.272,9.115a14.068,14.068,0,0,0-2.316,8.278q10.717-4.435,21.433-8.918a8.863,8.863,0,0,0-6.947-4.878C526.57,62.343,521.692,64.856,519.081,68.7Z" transform="translate(-256.855 -27.261)" fill="#fa3913"/>
  </g>
</svg>
