<svg xmlns="http://www.w3.org/2000/svg" width="291.516" height="81.172" viewBox="0 0 291.516 81.172">
  <path id="yahoo-7" d="M54.5,20.085H37.316L27.245,44.071,17.174,20.085H-.01q9.364,22.3,18.727,44.6L11.8,81.162H28.984C37.577,60.695,45.962,40.419,54.5,20.086ZM273.012.118h18.494L274.783,40.527H256.289ZM260.835,44.424a10.427,10.427,0,1,1-10.427,10.427A10.427,10.427,0,0,1,260.835,44.424ZM224.472,18.872a23.447,23.447,0,1,1-23.447,23.447A23.447,23.447,0,0,1,224.472,18.872Zm0,14.292a9.155,9.155,0,1,1-9.155,9.155A9.156,9.156,0,0,1,224.472,33.164ZM174.135,18.872a23.447,23.447,0,1,1-23.447,23.447,23.447,23.447,0,0,1,23.447-23.447Zm0,14.292a9.155,9.155,0,1,1-9.155,9.155,9.156,9.156,0,0,1,9.155-9.155ZM104.913-.01h15.5v24.1s2.713-5.222,11.673-5.222,14.708,3.943,14.823,20.086V65.278h-15.5V38.958a5.5,5.5,0,1,0-10.989.156l0,26.164h-15.5V-.01ZM83.8,20.085h15.5V65.278H83.8v-4.26a19.1,19.1,0,0,1-12.492,4.749c-11.434,0-20.7-10.5-20.7-23.447s9.269-23.447,20.7-23.447A19.1,19.1,0,0,1,83.8,23.622V20.086ZM75.068,33.164a9.155,9.155,0,1,1-9.155,9.155,9.156,9.156,0,0,1,9.155-9.155Z" transform="translate(0.01 0.01)" fill="#fff" fill-rule="evenodd"/>
</svg>
